<?xml version="1.0" encoding="utf-8"?>
<svg xmlns="http://www.w3.org/2000/svg" xmlns:xlink="http://www.w3.org/1999/xlink" width="400" height="400" viewBox="0 0 1600 1600">
<defs>
  <clipPath id="clip360">
    <rect x="0" y="0" width="1600" height="1600"/>
  </clipPath>
</defs>
<path clip-path="url(#clip360)" d="M0 1600 L1600 1600 L1600 0 L0 0  Z" fill="#ffffff" fill-rule="evenodd" fill-opacity="1"/>
<defs>
  <clipPath id="clip361">
    <rect x="320" y="160" width="1121" height="1121"/>
  </clipPath>
</defs>
<path clip-path="url(#clip360)" d="M47.2441 1552.76 L1552.76 1552.76 L1552.76 47.2441 L47.2441 47.2441  Z" fill="#ffffff" fill-rule="evenodd" fill-opacity="1"/>
<defs>
  <clipPath id="clip362">
    <rect x="47" y="47" width="1507" height="1507"/>
  </clipPath>
</defs>
<polyline clip-path="url(#clip362)" style="stroke:#0000ff; stroke-linecap:round; stroke-linejoin:round; stroke-width:4; stroke-opacity:1; fill:none" points="800,89.8529 1217.41,225.479 1475.39,580.552 1475.39,1019.45 1217.41,1374.52 800,1510.15 382.586,1374.52 124.61,1019.45 124.61,580.552 382.586,225.479 800,89.8529 "/>
<circle clip-path="url(#clip362)" cx="800" cy="89.8529" r="14.4" fill="#ffffff" fill-rule="evenodd" fill-opacity="1" stroke="#000000" stroke-opacity="1" stroke-width="3.2"/>
<circle clip-path="url(#clip362)" cx="1217.41" cy="225.479" r="14.4" fill="#ffffff" fill-rule="evenodd" fill-opacity="1" stroke="#000000" stroke-opacity="1" stroke-width="3.2"/>
<circle clip-path="url(#clip362)" cx="1475.39" cy="580.552" r="14.4" fill="#ffffff" fill-rule="evenodd" fill-opacity="1" stroke="#000000" stroke-opacity="1" stroke-width="3.2"/>
<circle clip-path="url(#clip362)" cx="1475.39" cy="1019.45" r="14.4" fill="#ffffff" fill-rule="evenodd" fill-opacity="1" stroke="#000000" stroke-opacity="1" stroke-width="3.2"/>
<circle clip-path="url(#clip362)" cx="1217.41" cy="1374.52" r="14.4" fill="#ffffff" fill-rule="evenodd" fill-opacity="1" stroke="#000000" stroke-opacity="1" stroke-width="3.2"/>
<circle clip-path="url(#clip362)" cx="800" cy="1510.15" r="14.4" fill="#ffffff" fill-rule="evenodd" fill-opacity="1" stroke="#000000" stroke-opacity="1" stroke-width="3.2"/>
<circle clip-path="url(#clip362)" cx="382.586" cy="1374.52" r="14.4" fill="#ffffff" fill-rule="evenodd" fill-opacity="1" stroke="#000000" stroke-opacity="1" stroke-width="3.2"/>
<circle clip-path="url(#clip362)" cx="124.61" cy="1019.45" r="14.4" fill="#ffffff" fill-rule="evenodd" fill-opacity="1" stroke="#000000" stroke-opacity="1" stroke-width="3.2"/>
<circle clip-path="url(#clip362)" cx="124.61" cy="580.552" r="14.4" fill="#ffffff" fill-rule="evenodd" fill-opacity="1" stroke="#000000" stroke-opacity="1" stroke-width="3.2"/>
<circle clip-path="url(#clip362)" cx="382.586" cy="225.479" r="14.4" fill="#ffffff" fill-rule="evenodd" fill-opacity="1" stroke="#000000" stroke-opacity="1" stroke-width="3.2"/>
<circle clip-path="url(#clip362)" cx="800" cy="89.8529" r="14.4" fill="#ffffff" fill-rule="evenodd" fill-opacity="1" stroke="#000000" stroke-opacity="1" stroke-width="3.2"/>
<circle clip-path="url(#clip362)" style="fill:#ffffff; stroke:none; fill-opacity:1" cx="1019.45" cy="124.61" r="2"/>
<circle clip-path="url(#clip362)" style="fill:#ffffff; stroke:none; fill-opacity:1" cx="1374.52" cy="382.586" r="2"/>
<circle clip-path="url(#clip362)" style="fill:#ffffff; stroke:none; fill-opacity:1" cx="1510.15" cy="800" r="2"/>
<circle clip-path="url(#clip362)" style="fill:#ffffff; stroke:none; fill-opacity:1" cx="1374.52" cy="1217.41" r="2"/>
<circle clip-path="url(#clip362)" style="fill:#ffffff; stroke:none; fill-opacity:1" cx="1019.45" cy="1475.39" r="2"/>
<circle clip-path="url(#clip362)" style="fill:#ffffff; stroke:none; fill-opacity:1" cx="580.552" cy="1475.39" r="2"/>
<circle clip-path="url(#clip362)" style="fill:#ffffff; stroke:none; fill-opacity:1" cx="225.479" cy="1217.41" r="2"/>
<circle clip-path="url(#clip362)" style="fill:#ffffff; stroke:none; fill-opacity:1" cx="89.8529" cy="800" r="2"/>
<circle clip-path="url(#clip362)" style="fill:#ffffff; stroke:none; fill-opacity:1" cx="225.479" cy="382.586" r="2"/>
<circle clip-path="url(#clip362)" style="fill:#ffffff; stroke:none; fill-opacity:1" cx="580.552" cy="124.61" r="2"/>
<circle clip-path="url(#clip362)" style="fill:#ffffff; stroke:none; fill-opacity:1" cx="1019.45" cy="124.61" r="2"/>
<path clip-path="url(#clip360)" d="M1002.62 147.963 L1015.98 147.963 L1015.98 101.824 L1001.44 104.74 L1001.44 97.2866 L1015.9 94.37 L1024.09 94.37 L1024.09 147.963 L1037.45 147.963 L1037.45 154.85 L1002.62 154.85 L1002.62 147.963 Z" fill="#000000" fill-rule="nonzero" fill-opacity="1" /><path clip-path="url(#clip360)" d="M1365.16 405.939 L1393.72 405.939 L1393.72 412.826 L1355.32 412.826 L1355.32 405.939 Q1359.98 401.119 1368 393.017 Q1376.06 384.875 1378.13 382.525 Q1382.06 378.11 1383.6 375.072 Q1385.17 371.993 1385.17 369.036 Q1385.17 364.215 1381.77 361.177 Q1378.41 358.139 1372.98 358.139 Q1369.13 358.139 1364.84 359.476 Q1360.59 360.812 1355.72 363.527 L1355.72 355.263 Q1360.67 353.278 1364.96 352.265 Q1369.25 351.252 1372.82 351.252 Q1382.22 351.252 1387.81 355.951 Q1393.4 360.65 1393.4 368.509 Q1393.4 372.236 1391.98 375.598 Q1390.6 378.92 1386.92 383.457 Q1385.9 384.632 1380.48 390.262 Q1375.05 395.853 1365.16 405.939 Z" fill="#000000" fill-rule="nonzero" fill-opacity="1" /><path clip-path="url(#clip360)" d="M1517.58 797.63 Q1523.45 798.886 1526.74 802.856 Q1530.06 806.826 1530.06 812.659 Q1530.06 821.612 1523.9 826.513 Q1517.74 831.415 1506.4 831.415 Q1502.59 831.415 1498.54 830.645 Q1494.53 829.916 1490.24 828.417 L1490.24 820.518 Q1493.64 822.503 1497.69 823.515 Q1501.74 824.528 1506.16 824.528 Q1513.85 824.528 1517.86 821.49 Q1521.91 818.452 1521.91 812.659 Q1521.91 807.312 1518.15 804.314 Q1514.42 801.276 1507.74 801.276 L1500.69 801.276 L1500.69 794.552 L1508.06 794.552 Q1514.1 794.552 1517.3 792.162 Q1520.5 789.731 1520.5 785.194 Q1520.5 780.535 1517.18 778.064 Q1513.89 775.553 1507.74 775.553 Q1504.37 775.553 1500.53 776.282 Q1496.68 777.011 1492.06 778.55 L1492.06 771.259 Q1496.72 769.963 1500.77 769.314 Q1504.86 768.666 1508.47 768.666 Q1517.78 768.666 1523.21 772.92 Q1528.64 777.133 1528.64 784.343 Q1528.64 789.366 1525.76 792.85 Q1522.89 796.293 1517.58 797.63 Z" fill="#000000" fill-rule="nonzero" fill-opacity="1" /><path clip-path="url(#clip360)" d="M1379.79 1194.3 L1359.13 1226.59 L1379.79 1226.59 L1379.79 1194.3 M1377.64 1187.17 L1387.93 1187.17 L1387.93 1226.59 L1396.56 1226.59 L1396.56 1233.39 L1387.93 1233.39 L1387.93 1247.65 L1379.79 1247.65 L1379.79 1233.39 L1352.48 1233.39 L1352.48 1225.5 L1377.64 1187.17 Z" fill="#000000" fill-rule="nonzero" fill-opacity="1" /><path clip-path="url(#clip360)" d="M1002.43 1445.15 L1034.56 1445.15 L1034.56 1452.04 L1009.93 1452.04 L1009.93 1466.86 Q1011.71 1466.26 1013.49 1465.97 Q1015.28 1465.65 1017.06 1465.65 Q1027.18 1465.65 1033.1 1471.2 Q1039.01 1476.75 1039.01 1486.23 Q1039.01 1495.99 1032.94 1501.42 Q1026.86 1506.8 1015.8 1506.8 Q1011.99 1506.8 1008.02 1506.16 Q1004.09 1505.51 999.882 1504.21 L999.882 1495.99 Q1003.53 1497.97 1007.42 1498.95 Q1011.31 1499.92 1015.64 1499.92 Q1022.65 1499.92 1026.74 1496.23 Q1030.83 1492.55 1030.83 1486.23 Q1030.83 1479.91 1026.74 1476.22 Q1022.65 1472.53 1015.64 1472.53 Q1012.36 1472.53 1009.08 1473.26 Q1005.84 1473.99 1002.43 1475.53 L1002.43 1445.15 Z" fill="#000000" fill-rule="nonzero" fill-opacity="1" /><path clip-path="url(#clip360)" d="M581.261 1472.13 Q575.752 1472.13 572.511 1475.9 Q569.311 1479.66 569.311 1486.23 Q569.311 1492.75 572.511 1496.56 Q575.752 1500.32 581.261 1500.32 Q586.771 1500.32 589.971 1496.56 Q593.212 1492.75 593.212 1486.23 Q593.212 1479.66 589.971 1475.9 Q586.771 1472.13 581.261 1472.13 M597.506 1446.49 L597.506 1453.94 Q594.427 1452.48 591.267 1451.71 Q588.148 1450.94 585.069 1450.94 Q576.967 1450.94 572.673 1456.41 Q568.42 1461.88 567.812 1472.94 Q570.202 1469.41 573.808 1467.55 Q577.413 1465.65 581.748 1465.65 Q590.862 1465.65 596.128 1471.2 Q601.435 1476.71 601.435 1486.23 Q601.435 1495.54 595.926 1501.17 Q590.416 1506.8 581.261 1506.8 Q570.77 1506.8 565.22 1498.78 Q559.67 1490.72 559.67 1475.45 Q559.67 1461.11 566.476 1452.6 Q573.281 1444.06 584.745 1444.06 Q587.824 1444.06 590.943 1444.66 Q594.103 1445.27 597.506 1446.49 Z" fill="#000000" fill-rule="nonzero" fill-opacity="1" /><path clip-path="url(#clip360)" d="M206.035 1187.17 L244.923 1187.17 L244.923 1190.66 L222.967 1247.65 L214.42 1247.65 L235.08 1194.06 L206.035 1194.06 L206.035 1187.17 Z" fill="#000000" fill-rule="nonzero" fill-opacity="1" /><path clip-path="url(#clip360)" d="M89.8529 801.519 Q84.0196 801.519 80.6574 804.638 Q77.3356 807.757 77.3356 813.226 Q77.3356 818.695 80.6574 821.814 Q84.0196 824.933 89.8529 824.933 Q95.6862 824.933 99.0485 821.814 Q102.411 818.654 102.411 813.226 Q102.411 807.757 99.0485 804.638 Q95.7267 801.519 89.8529 801.519 M81.6701 798.035 Q76.4039 796.739 73.4468 793.134 Q70.5301 789.528 70.5301 784.343 Q70.5301 777.092 75.6748 772.879 Q80.8599 768.666 89.8529 768.666 Q98.8864 768.666 104.031 772.879 Q109.176 777.092 109.176 784.343 Q109.176 789.528 106.219 793.134 Q103.302 796.739 98.0763 798.035 Q103.991 799.413 107.272 803.423 Q110.594 807.433 110.594 813.226 Q110.594 822.017 105.206 826.716 Q99.8587 831.415 89.8529 831.415 Q79.8472 831.415 74.4595 826.716 Q69.1123 822.017 69.1123 813.226 Q69.1123 807.433 72.434 803.423 Q75.7558 799.413 81.6701 798.035 M78.6724 785.113 Q78.6724 789.812 81.5891 792.445 Q84.5462 795.078 89.8529 795.078 Q95.1191 795.078 98.0763 792.445 Q101.074 789.812 101.074 785.113 Q101.074 780.414 98.0763 777.781 Q95.1191 775.148 89.8529 775.148 Q84.5462 775.148 81.5891 777.781 Q78.6724 780.414 78.6724 785.113 Z" fill="#000000" fill-rule="nonzero" fill-opacity="1" /><path clip-path="url(#clip360)" d="M208.506 411.57 L208.506 404.117 Q211.584 405.575 214.744 406.345 Q217.904 407.114 220.942 407.114 Q229.044 407.114 233.297 401.686 Q237.591 396.217 238.199 385.118 Q235.849 388.602 232.244 390.465 Q228.639 392.328 224.264 392.328 Q215.19 392.328 209.883 386.86 Q204.617 381.35 204.617 371.831 Q204.617 362.514 210.126 356.883 Q215.635 351.252 224.79 351.252 Q235.282 351.252 240.791 359.314 Q246.341 367.334 246.341 382.647 Q246.341 396.946 239.536 405.494 Q232.771 414.001 221.307 414.001 Q218.228 414.001 215.068 413.393 Q211.908 412.786 208.506 411.57 M224.79 385.928 Q230.3 385.928 233.5 382.161 Q236.74 378.393 236.74 371.831 Q236.74 365.309 233.5 361.542 Q230.3 357.734 224.79 357.734 Q219.281 357.734 216.04 361.542 Q212.84 365.309 212.84 371.831 Q212.84 378.393 216.04 382.161 Q219.281 385.928 224.79 385.928 Z" fill="#000000" fill-rule="nonzero" fill-opacity="1" /><path clip-path="url(#clip360)" d="M536.256 147.963 L549.624 147.963 L549.624 101.824 L535.081 104.74 L535.081 97.2866 L549.543 94.37 L557.726 94.37 L557.726 147.963 L571.094 147.963 L571.094 154.85 L536.256 154.85 L536.256 147.963 Z" fill="#000000" fill-rule="nonzero" fill-opacity="1" /><path clip-path="url(#clip360)" d="M605.121 99.7577 Q598.802 99.7577 595.602 105.996 Q592.442 112.194 592.442 124.671 Q592.442 137.107 595.602 143.345 Q598.802 149.543 605.121 149.543 Q611.481 149.543 614.641 143.345 Q617.841 137.107 617.841 124.671 Q617.841 112.194 614.641 105.996 Q611.481 99.7577 605.121 99.7577 M605.121 93.2762 Q615.289 93.2762 620.636 101.338 Q626.024 109.358 626.024 124.671 Q626.024 139.943 620.636 148.004 Q615.289 156.025 605.121 156.025 Q594.953 156.025 589.566 148.004 Q584.219 139.943 584.219 124.671 Q584.219 109.358 589.566 101.338 Q594.953 93.2762 605.121 93.2762 Z" fill="#000000" fill-rule="nonzero" fill-opacity="1" /><path clip-path="url(#clip360)" d="M1002.62 147.963 L1015.98 147.963 L1015.98 101.824 L1001.44 104.74 L1001.44 97.2866 L1015.9 94.37 L1024.09 94.37 L1024.09 147.963 L1037.45 147.963 L1037.45 154.85 L1002.62 154.85 L1002.62 147.963 Z" fill="#000000" fill-rule="nonzero" fill-opacity="1" /></svg>
