<?xml version="1.0" encoding="utf-8"?>
<svg xmlns="http://www.w3.org/2000/svg" xmlns:xlink="http://www.w3.org/1999/xlink" width="400" height="400" viewBox="0 0 1600 1600">
<defs>
  <clipPath id="clip540">
    <rect x="0" y="0" width="1600" height="1600"/>
  </clipPath>
</defs>
<path clip-path="url(#clip540)" d="M0 1600 L1600 1600 L1600 0 L0 0  Z" fill="#ffffff" fill-rule="evenodd" fill-opacity="1"/>
<defs>
  <clipPath id="clip541">
    <rect x="320" y="160" width="1121" height="1121"/>
  </clipPath>
</defs>
<path clip-path="url(#clip540)" d="M47.2441 1552.76 L1552.76 1552.76 L1552.76 47.2441 L47.2441 47.2441  Z" fill="#ffffff" fill-rule="evenodd" fill-opacity="1"/>
<defs>
  <clipPath id="clip542">
    <rect x="47" y="47" width="1507" height="1507"/>
  </clipPath>
</defs>
<polyline clip-path="url(#clip542)" style="stroke:#0000ff; stroke-linecap:round; stroke-linejoin:round; stroke-width:4; stroke-opacity:1; fill:none" points="800,208.211 1165.75,321.232 1391.79,617.127 1391.79,982.873 1165.75,1278.77 800,1391.79 434.254,1278.77 208.211,982.873 208.211,617.127 434.254,321.232 800,208.211 "/>
<circle clip-path="url(#clip542)" cx="800" cy="208.211" r="14.4" fill="#ffffff" fill-rule="evenodd" fill-opacity="1" stroke="#000000" stroke-opacity="1" stroke-width="3.2"/>
<circle clip-path="url(#clip542)" cx="1165.75" cy="321.232" r="14.4" fill="#ffffff" fill-rule="evenodd" fill-opacity="1" stroke="#000000" stroke-opacity="1" stroke-width="3.2"/>
<circle clip-path="url(#clip542)" cx="1391.79" cy="617.127" r="14.4" fill="#ffffff" fill-rule="evenodd" fill-opacity="1" stroke="#000000" stroke-opacity="1" stroke-width="3.2"/>
<circle clip-path="url(#clip542)" cx="1391.79" cy="982.873" r="14.4" fill="#ffffff" fill-rule="evenodd" fill-opacity="1" stroke="#000000" stroke-opacity="1" stroke-width="3.2"/>
<circle clip-path="url(#clip542)" cx="1165.75" cy="1278.77" r="14.4" fill="#ffffff" fill-rule="evenodd" fill-opacity="1" stroke="#000000" stroke-opacity="1" stroke-width="3.2"/>
<circle clip-path="url(#clip542)" cx="800" cy="1391.79" r="14.4" fill="#ffffff" fill-rule="evenodd" fill-opacity="1" stroke="#000000" stroke-opacity="1" stroke-width="3.2"/>
<circle clip-path="url(#clip542)" cx="434.254" cy="1278.77" r="14.4" fill="#ffffff" fill-rule="evenodd" fill-opacity="1" stroke="#000000" stroke-opacity="1" stroke-width="3.2"/>
<circle clip-path="url(#clip542)" cx="208.211" cy="982.873" r="14.4" fill="#ffffff" fill-rule="evenodd" fill-opacity="1" stroke="#000000" stroke-opacity="1" stroke-width="3.2"/>
<circle clip-path="url(#clip542)" cx="208.211" cy="617.127" r="14.4" fill="#ffffff" fill-rule="evenodd" fill-opacity="1" stroke="#000000" stroke-opacity="1" stroke-width="3.2"/>
<circle clip-path="url(#clip542)" cx="434.254" cy="321.232" r="14.4" fill="#ffffff" fill-rule="evenodd" fill-opacity="1" stroke="#000000" stroke-opacity="1" stroke-width="3.2"/>
<circle clip-path="url(#clip542)" cx="800" cy="208.211" r="14.4" fill="#ffffff" fill-rule="evenodd" fill-opacity="1" stroke="#000000" stroke-opacity="1" stroke-width="3.2"/>
<circle clip-path="url(#clip542)" style="fill:#3da44d; stroke:none; fill-opacity:1" cx="800" cy="89.8529" r="2"/>
<circle clip-path="url(#clip542)" style="fill:#3da44d; stroke:none; fill-opacity:1" cx="1238.9" cy="225.479" r="2"/>
<circle clip-path="url(#clip542)" style="fill:#3da44d; stroke:none; fill-opacity:1" cx="1510.15" cy="580.552" r="2"/>
<circle clip-path="url(#clip542)" style="fill:#3da44d; stroke:none; fill-opacity:1" cx="1510.15" cy="1019.45" r="2"/>
<circle clip-path="url(#clip542)" style="fill:#3da44d; stroke:none; fill-opacity:1" cx="1238.9" cy="1374.52" r="2"/>
<circle clip-path="url(#clip542)" style="fill:#3da44d; stroke:none; fill-opacity:1" cx="800" cy="1510.15" r="2"/>
<circle clip-path="url(#clip542)" style="fill:#3da44d; stroke:none; fill-opacity:1" cx="361.105" cy="1374.52" r="2"/>
<circle clip-path="url(#clip542)" style="fill:#3da44d; stroke:none; fill-opacity:1" cx="89.8529" cy="1019.45" r="2"/>
<circle clip-path="url(#clip542)" style="fill:#3da44d; stroke:none; fill-opacity:1" cx="89.8529" cy="580.552" r="2"/>
<circle clip-path="url(#clip542)" style="fill:#3da44d; stroke:none; fill-opacity:1" cx="361.105" cy="225.479" r="2"/>
<circle clip-path="url(#clip542)" style="fill:#3da44d; stroke:none; fill-opacity:1" cx="800" cy="89.8529" r="2"/>
<path clip-path="url(#clip540)" d="M756.777 113.206 L770.145 113.206 L770.145 67.0666 L755.602 69.9832 L755.602 62.5296 L770.064 59.6129 L778.247 59.6129 L778.247 113.206 L791.615 113.206 L791.615 120.093 L756.777 120.093 L756.777 113.206 Z" fill="#000000" fill-rule="nonzero" fill-opacity="1" /><path clip-path="url(#clip540)" d="M809.56 113.206 L822.928 113.206 L822.928 67.0666 L808.385 69.9832 L808.385 62.5296 L822.847 59.6129 L831.03 59.6129 L831.03 113.206 L844.398 113.206 L844.398 120.093 L809.56 120.093 L809.56 113.206 Z" fill="#000000" fill-rule="nonzero" fill-opacity="1" /><path clip-path="url(#clip540)" d="M1246.33 223.109 Q1252.2 224.365 1255.48 228.335 Q1258.81 232.305 1258.81 238.138 Q1258.81 247.091 1252.65 251.992 Q1246.49 256.894 1235.15 256.894 Q1231.34 256.894 1227.29 256.124 Q1223.28 255.395 1218.98 253.896 L1218.98 245.997 Q1222.39 247.982 1226.44 248.994 Q1230.49 250.007 1234.9 250.007 Q1242.6 250.007 1246.61 246.969 Q1250.66 243.931 1250.66 238.138 Q1250.66 232.791 1246.9 229.793 Q1243.17 226.755 1236.48 226.755 L1229.44 226.755 L1229.44 220.03 L1236.81 220.03 Q1242.84 220.03 1246.04 217.64 Q1249.25 215.21 1249.25 210.673 Q1249.25 206.014 1245.92 203.543 Q1242.64 201.032 1236.48 201.032 Q1233.12 201.032 1229.27 201.761 Q1225.43 202.49 1220.81 204.029 L1220.81 196.738 Q1225.47 195.441 1229.52 194.793 Q1233.61 194.145 1237.21 194.145 Q1246.53 194.145 1251.96 198.399 Q1257.39 202.612 1257.39 209.822 Q1257.39 214.845 1254.51 218.329 Q1251.64 221.772 1246.33 223.109 Z" fill="#000000" fill-rule="nonzero" fill-opacity="1" /><path clip-path="url(#clip540)" d="M1493.13 550.312 L1525.26 550.312 L1525.26 557.199 L1500.63 557.199 L1500.63 572.025 Q1502.41 571.418 1504.19 571.134 Q1505.97 570.81 1507.76 570.81 Q1517.88 570.81 1523.8 576.36 Q1529.71 581.91 1529.71 591.389 Q1529.71 601.151 1523.64 606.58 Q1517.56 611.967 1506.5 611.967 Q1502.69 611.967 1498.72 611.319 Q1494.79 610.671 1490.58 609.375 L1490.58 601.151 Q1494.23 603.136 1498.12 604.108 Q1502 605.081 1506.34 605.081 Q1513.35 605.081 1517.44 601.394 Q1521.53 597.708 1521.53 591.389 Q1521.53 585.069 1517.44 581.383 Q1513.35 577.697 1506.34 577.697 Q1503.06 577.697 1499.78 578.426 Q1496.54 579.155 1493.13 580.694 L1493.13 550.312 Z" fill="#000000" fill-rule="nonzero" fill-opacity="1" /><path clip-path="url(#clip540)" d="M1490.7 989.208 L1529.59 989.208 L1529.59 992.691 L1507.64 1049.69 L1499.09 1049.69 L1519.75 996.094 L1490.7 996.094 L1490.7 989.208 Z" fill="#000000" fill-rule="nonzero" fill-opacity="1" /><path clip-path="url(#clip540)" d="M1221.92 1403.51 L1221.92 1396.05 Q1225 1397.51 1228.16 1398.28 Q1231.32 1399.05 1234.36 1399.05 Q1242.46 1399.05 1246.71 1393.62 Q1251.01 1388.15 1251.61 1377.05 Q1249.27 1380.54 1245.66 1382.4 Q1242.05 1384.26 1237.68 1384.26 Q1228.61 1384.26 1223.3 1378.79 Q1218.03 1373.29 1218.03 1363.77 Q1218.03 1354.45 1223.54 1348.82 Q1229.05 1343.19 1238.21 1343.19 Q1248.7 1343.19 1254.21 1351.25 Q1259.76 1359.27 1259.76 1374.58 Q1259.76 1388.88 1252.95 1397.43 Q1246.19 1405.94 1234.72 1405.94 Q1231.64 1405.94 1228.48 1405.33 Q1225.32 1404.72 1221.92 1403.51 M1238.21 1377.86 Q1243.72 1377.86 1246.92 1374.1 Q1250.16 1370.33 1250.16 1363.77 Q1250.16 1357.24 1246.92 1353.48 Q1243.72 1349.67 1238.21 1349.67 Q1232.7 1349.67 1229.46 1353.48 Q1226.26 1357.24 1226.26 1363.77 Q1226.26 1370.33 1229.46 1374.1 Q1232.7 1377.86 1238.21 1377.86 Z" fill="#000000" fill-rule="nonzero" fill-opacity="1" /><path clip-path="url(#clip540)" d="M756.777 1533.5 L770.145 1533.5 L770.145 1487.36 L755.602 1490.28 L755.602 1482.82 L770.064 1479.91 L778.247 1479.91 L778.247 1533.5 L791.615 1533.5 L791.615 1540.39 L756.777 1540.39 L756.777 1533.5 Z" fill="#000000" fill-rule="nonzero" fill-opacity="1" /><path clip-path="url(#clip540)" d="M809.56 1533.5 L822.928 1533.5 L822.928 1487.36 L808.385 1490.28 L808.385 1482.82 L822.847 1479.91 L831.03 1479.91 L831.03 1533.5 L844.398 1533.5 L844.398 1540.39 L809.56 1540.39 L809.56 1533.5 Z" fill="#000000" fill-rule="nonzero" fill-opacity="1" /><path clip-path="url(#clip540)" d="M317.375 1397.87 L330.743 1397.87 L330.743 1351.73 L316.201 1354.65 L316.201 1347.2 L330.662 1344.28 L338.845 1344.28 L338.845 1397.87 L352.213 1397.87 L352.213 1404.76 L317.375 1404.76 L317.375 1397.87 Z" fill="#000000" fill-rule="nonzero" fill-opacity="1" /><path clip-path="url(#clip540)" d="M393.532 1372.15 Q399.406 1373.41 402.687 1377.38 Q406.009 1381.35 406.009 1387.18 Q406.009 1396.13 399.852 1401.03 Q393.694 1405.94 382.352 1405.94 Q378.544 1405.94 374.493 1405.17 Q370.483 1404.44 366.189 1402.94 L366.189 1395.04 Q369.592 1397.02 373.643 1398.04 Q377.693 1399.05 382.109 1399.05 Q389.806 1399.05 393.816 1396.01 Q397.867 1392.97 397.867 1387.18 Q397.867 1381.83 394.1 1378.84 Q390.373 1375.8 383.689 1375.8 L376.64 1375.8 L376.64 1369.07 L384.013 1369.07 Q390.049 1369.07 393.249 1366.68 Q396.449 1364.25 396.449 1359.72 Q396.449 1355.06 393.127 1352.59 Q389.846 1350.07 383.689 1350.07 Q380.327 1350.07 376.478 1350.8 Q372.63 1351.53 368.012 1353.07 L368.012 1345.78 Q372.67 1344.48 376.721 1343.84 Q380.813 1343.19 384.418 1343.19 Q393.735 1343.19 399.163 1347.44 Q404.591 1351.65 404.591 1358.86 Q404.591 1363.89 401.715 1367.37 Q398.839 1370.81 393.532 1372.15 Z" fill="#000000" fill-rule="nonzero" fill-opacity="1" /><path clip-path="url(#clip540)" d="M46.4272 1042.8 L59.7952 1042.8 L59.7952 996.661 L45.2525 999.578 L45.2525 992.124 L59.7142 989.208 L67.897 989.208 L67.897 1042.8 L81.265 1042.8 L81.265 1049.69 L46.4272 1049.69 L46.4272 1042.8 Z" fill="#000000" fill-rule="nonzero" fill-opacity="1" /><path clip-path="url(#clip540)" d="M97.8737 989.208 L129.997 989.208 L129.997 996.094 L105.368 996.094 L105.368 1010.92 Q107.15 1010.31 108.933 1010.03 Q110.715 1009.71 112.497 1009.71 Q122.625 1009.71 128.539 1015.25 Q134.453 1020.8 134.453 1030.28 Q134.453 1040.05 128.377 1045.47 Q122.301 1050.86 111.242 1050.86 Q107.434 1050.86 103.464 1050.21 Q99.5346 1049.57 95.3216 1048.27 L95.3216 1040.05 Q98.9675 1042.03 102.856 1043 Q106.745 1043.98 111.08 1043.98 Q118.088 1043.98 122.179 1040.29 Q126.271 1036.6 126.271 1030.28 Q126.271 1023.96 122.179 1020.28 Q118.088 1016.59 111.08 1016.59 Q107.798 1016.59 104.517 1017.32 Q101.276 1018.05 97.8737 1019.59 L97.8737 989.208 Z" fill="#000000" fill-rule="nonzero" fill-opacity="1" /><path clip-path="url(#clip540)" d="M46.3462 603.906 L59.7142 603.906 L59.7142 557.766 L45.1714 560.683 L45.1714 553.229 L59.6332 550.312 L67.816 550.312 L67.816 603.906 L81.184 603.906 L81.184 610.792 L46.3462 610.792 L46.3462 603.906 Z" fill="#000000" fill-rule="nonzero" fill-opacity="1" /><path clip-path="url(#clip540)" d="M95.6457 550.312 L134.534 550.312 L134.534 553.796 L112.578 610.792 L104.031 610.792 L124.691 557.199 L95.6457 557.199 L95.6457 550.312 Z" fill="#000000" fill-rule="nonzero" fill-opacity="1" /><path clip-path="url(#clip540)" d="M316.97 248.832 L330.338 248.832 L330.338 202.693 L315.796 205.609 L315.796 198.156 L330.257 195.239 L338.44 195.239 L338.44 248.832 L351.808 248.832 L351.808 255.719 L316.97 255.719 L316.97 248.832 Z" fill="#000000" fill-rule="nonzero" fill-opacity="1" /><path clip-path="url(#clip540)" d="M368.579 254.463 L368.579 247.009 Q371.658 248.468 374.817 249.237 Q377.977 250.007 381.015 250.007 Q389.117 250.007 393.37 244.579 Q397.664 239.11 398.272 228.011 Q395.922 231.495 392.317 233.358 Q388.712 235.221 384.337 235.221 Q375.263 235.221 369.956 229.753 Q364.69 224.243 364.69 214.724 Q364.69 205.407 370.199 199.776 Q375.708 194.145 384.864 194.145 Q395.355 194.145 400.865 202.206 Q406.414 210.227 406.414 225.54 Q406.414 239.839 399.609 248.387 Q392.844 256.894 381.38 256.894 Q378.301 256.894 375.141 256.286 Q371.982 255.678 368.579 254.463 M384.864 228.821 Q390.373 228.821 393.573 225.054 Q396.814 221.286 396.814 214.724 Q396.814 208.202 393.573 204.434 Q390.373 200.627 384.864 200.627 Q379.354 200.627 376.114 204.434 Q372.913 208.202 372.913 214.724 Q372.913 221.286 376.114 225.054 Q379.354 228.821 384.864 228.821 Z" fill="#000000" fill-rule="nonzero" fill-opacity="1" /><path clip-path="url(#clip540)" d="M756.777 113.206 L770.145 113.206 L770.145 67.0666 L755.602 69.9832 L755.602 62.5296 L770.064 59.6129 L778.247 59.6129 L778.247 113.206 L791.615 113.206 L791.615 120.093 L756.777 120.093 L756.777 113.206 Z" fill="#000000" fill-rule="nonzero" fill-opacity="1" /><path clip-path="url(#clip540)" d="M809.56 113.206 L822.928 113.206 L822.928 67.0666 L808.385 69.9832 L808.385 62.5296 L822.847 59.6129 L831.03 59.6129 L831.03 113.206 L844.398 113.206 L844.398 120.093 L809.56 120.093 L809.56 113.206 Z" fill="#000000" fill-rule="nonzero" fill-opacity="1" /><circle clip-path="url(#clip542)" style="fill:#ffffff; stroke:none; fill-opacity:1" cx="992.284" cy="237.175" r="2"/>
<circle clip-path="url(#clip542)" style="fill:#ffffff; stroke:none; fill-opacity:1" cx="1303.41" cy="452.155" r="2"/>
<circle clip-path="url(#clip542)" style="fill:#ffffff; stroke:none; fill-opacity:1" cx="1422.24" cy="800" r="2"/>
<circle clip-path="url(#clip542)" style="fill:#ffffff; stroke:none; fill-opacity:1" cx="1303.41" cy="1147.84" r="2"/>
<circle clip-path="url(#clip542)" style="fill:#ffffff; stroke:none; fill-opacity:1" cx="992.284" cy="1362.83" r="2"/>
<circle clip-path="url(#clip542)" style="fill:#ffffff; stroke:none; fill-opacity:1" cx="607.716" cy="1362.83" r="2"/>
<circle clip-path="url(#clip542)" style="fill:#ffffff; stroke:none; fill-opacity:1" cx="296.594" cy="1147.84" r="2"/>
<circle clip-path="url(#clip542)" style="fill:#ffffff; stroke:none; fill-opacity:1" cx="177.756" cy="800" r="2"/>
<circle clip-path="url(#clip542)" style="fill:#ffffff; stroke:none; fill-opacity:1" cx="296.594" cy="452.155" r="2"/>
<circle clip-path="url(#clip542)" style="fill:#ffffff; stroke:none; fill-opacity:1" cx="607.716" cy="237.175" r="2"/>
<circle clip-path="url(#clip542)" style="fill:#ffffff; stroke:none; fill-opacity:1" cx="992.284" cy="237.175" r="2"/>
<path clip-path="url(#clip540)" d="M975.452 260.528 L988.82 260.528 L988.82 214.389 L974.278 217.305 L974.278 209.852 L988.739 206.935 L996.922 206.935 L996.922 260.528 L1010.29 260.528 L1010.29 267.415 L975.452 267.415 L975.452 260.528 Z" fill="#000000" fill-rule="nonzero" fill-opacity="1" /><path clip-path="url(#clip540)" d="M1294.05 475.508 L1322.61 475.508 L1322.61 482.395 L1284.2 482.395 L1284.2 475.508 Q1288.86 470.688 1296.88 462.586 Q1304.95 454.444 1307.01 452.094 Q1310.94 447.679 1312.48 444.641 Q1314.06 441.562 1314.06 438.605 Q1314.06 433.784 1310.66 430.746 Q1307.29 427.708 1301.87 427.708 Q1298.02 427.708 1293.72 429.045 Q1289.47 430.381 1284.61 433.096 L1284.61 424.832 Q1289.55 422.847 1293.85 421.834 Q1298.14 420.821 1301.7 420.821 Q1311.1 420.821 1316.69 425.52 Q1322.28 430.219 1322.28 438.078 Q1322.28 441.805 1320.87 445.167 Q1319.49 448.489 1315.8 453.026 Q1314.79 454.201 1309.36 459.831 Q1303.93 465.422 1294.05 475.508 Z" fill="#000000" fill-rule="nonzero" fill-opacity="1" /><path clip-path="url(#clip540)" d="M1429.68 797.63 Q1435.55 798.886 1438.83 802.856 Q1442.15 806.826 1442.15 812.659 Q1442.15 821.612 1436 826.513 Q1429.84 831.415 1418.5 831.415 Q1414.69 831.415 1410.64 830.645 Q1406.63 829.916 1402.33 828.417 L1402.33 820.518 Q1405.74 822.503 1409.79 823.515 Q1413.84 824.528 1418.25 824.528 Q1425.95 824.528 1429.96 821.49 Q1434.01 818.452 1434.01 812.659 Q1434.01 807.312 1430.24 804.314 Q1426.52 801.276 1419.83 801.276 L1412.79 801.276 L1412.79 794.552 L1420.16 794.552 Q1426.19 794.552 1429.39 792.162 Q1432.59 789.731 1432.59 785.194 Q1432.59 780.535 1429.27 778.064 Q1425.99 775.553 1419.83 775.553 Q1416.47 775.553 1412.62 776.282 Q1408.77 777.011 1404.16 778.55 L1404.16 771.259 Q1408.82 769.963 1412.87 769.314 Q1416.96 768.666 1420.56 768.666 Q1429.88 768.666 1435.31 772.92 Q1440.74 777.133 1440.74 784.343 Q1440.74 789.366 1437.86 792.85 Q1434.98 796.293 1429.68 797.63 Z" fill="#000000" fill-rule="nonzero" fill-opacity="1" /><path clip-path="url(#clip540)" d="M1308.67 1124.73 L1288.01 1157.02 L1308.67 1157.02 L1308.67 1124.73 M1306.53 1117.6 L1316.81 1117.6 L1316.81 1157.02 L1325.44 1157.02 L1325.44 1163.83 L1316.81 1163.83 L1316.81 1178.08 L1308.67 1178.08 L1308.67 1163.83 L1281.37 1163.83 L1281.37 1155.93 L1306.53 1117.6 Z" fill="#000000" fill-rule="nonzero" fill-opacity="1" /><path clip-path="url(#clip540)" d="M975.27 1332.59 L1007.39 1332.59 L1007.39 1339.47 L982.764 1339.47 L982.764 1354.3 Q984.547 1353.69 986.329 1353.41 Q988.112 1353.08 989.894 1353.08 Q1000.02 1353.08 1005.94 1358.63 Q1011.85 1364.18 1011.85 1373.66 Q1011.85 1383.42 1005.77 1388.85 Q999.697 1394.24 988.638 1394.24 Q984.83 1394.24 980.86 1393.59 Q976.931 1392.94 972.718 1391.65 L972.718 1383.42 Q976.364 1385.41 980.253 1386.38 Q984.142 1387.35 988.476 1387.35 Q995.484 1387.35 999.576 1383.67 Q1003.67 1379.98 1003.67 1373.66 Q1003.67 1367.34 999.576 1363.66 Q995.484 1359.97 988.476 1359.97 Q985.195 1359.97 981.914 1360.7 Q978.673 1361.43 975.27 1362.97 L975.27 1332.59 Z" fill="#000000" fill-rule="nonzero" fill-opacity="1" /><path clip-path="url(#clip540)" d="M608.425 1359.56 Q602.916 1359.56 599.675 1363.33 Q596.475 1367.1 596.475 1373.66 Q596.475 1380.18 599.675 1383.99 Q602.916 1387.76 608.425 1387.76 Q613.934 1387.76 617.134 1383.99 Q620.375 1380.18 620.375 1373.66 Q620.375 1367.1 617.134 1363.33 Q613.934 1359.56 608.425 1359.56 M624.669 1333.92 L624.669 1341.38 Q621.59 1339.92 618.431 1339.15 Q615.311 1338.38 612.233 1338.38 Q604.131 1338.38 599.837 1343.85 Q595.584 1349.32 594.976 1360.37 Q597.366 1356.85 600.971 1354.99 Q604.577 1353.08 608.911 1353.08 Q618.026 1353.08 623.292 1358.63 Q628.598 1364.14 628.598 1373.66 Q628.598 1382.98 623.089 1388.61 Q617.58 1394.24 608.425 1394.24 Q597.933 1394.24 592.383 1386.22 Q586.834 1378.16 586.834 1362.89 Q586.834 1348.55 593.639 1340.04 Q600.445 1331.49 611.909 1331.49 Q614.987 1331.49 618.107 1332.1 Q621.266 1332.71 624.669 1333.92 Z" fill="#000000" fill-rule="nonzero" fill-opacity="1" /><path clip-path="url(#clip540)" d="M277.15 1117.6 L316.038 1117.6 L316.038 1121.09 L294.082 1178.08 L285.535 1178.08 L306.195 1124.49 L277.15 1124.49 L277.15 1117.6 Z" fill="#000000" fill-rule="nonzero" fill-opacity="1" /><path clip-path="url(#clip540)" d="M177.756 801.519 Q171.923 801.519 168.56 804.638 Q165.239 807.757 165.239 813.226 Q165.239 818.695 168.56 821.814 Q171.923 824.933 177.756 824.933 Q183.589 824.933 186.952 821.814 Q190.314 818.654 190.314 813.226 Q190.314 807.757 186.952 804.638 Q183.63 801.519 177.756 801.519 M169.573 798.035 Q164.307 796.739 161.35 793.134 Q158.433 789.528 158.433 784.343 Q158.433 777.092 163.578 772.879 Q168.763 768.666 177.756 768.666 Q186.789 768.666 191.934 772.879 Q197.079 777.092 197.079 784.343 Q197.079 789.528 194.122 793.134 Q191.205 796.739 185.979 798.035 Q191.894 799.413 195.175 803.423 Q198.497 807.433 198.497 813.226 Q198.497 822.017 193.109 826.716 Q187.762 831.415 177.756 831.415 Q167.75 831.415 162.363 826.716 Q157.015 822.017 157.015 813.226 Q157.015 807.433 160.337 803.423 Q163.659 799.413 169.573 798.035 M166.575 785.113 Q166.575 789.812 169.492 792.445 Q172.449 795.078 177.756 795.078 Q183.022 795.078 185.979 792.445 Q188.977 789.812 188.977 785.113 Q188.977 780.414 185.979 777.781 Q183.022 775.148 177.756 775.148 Q172.449 775.148 169.492 777.781 Q166.575 780.414 166.575 785.113 Z" fill="#000000" fill-rule="nonzero" fill-opacity="1" /><path clip-path="url(#clip540)" d="M279.621 481.139 L279.621 473.686 Q282.699 475.144 285.859 475.914 Q289.019 476.683 292.057 476.683 Q300.159 476.683 304.412 471.255 Q308.706 465.786 309.314 454.687 Q306.964 458.171 303.359 460.034 Q299.754 461.897 295.379 461.897 Q286.305 461.897 280.998 456.429 Q275.732 450.919 275.732 441.4 Q275.732 432.083 281.241 426.452 Q286.75 420.821 295.905 420.821 Q306.397 420.821 311.906 428.883 Q317.456 436.903 317.456 452.216 Q317.456 466.515 310.651 475.063 Q303.886 483.57 292.422 483.57 Q289.343 483.57 286.183 482.962 Q283.023 482.355 279.621 481.139 M295.905 455.497 Q301.415 455.497 304.615 451.73 Q307.856 447.962 307.856 441.4 Q307.856 434.878 304.615 431.111 Q301.415 427.303 295.905 427.303 Q290.396 427.303 287.155 431.111 Q283.955 434.878 283.955 441.4 Q283.955 447.962 287.155 451.73 Q290.396 455.497 295.905 455.497 Z" fill="#000000" fill-rule="nonzero" fill-opacity="1" /><path clip-path="url(#clip540)" d="M563.419 260.528 L576.787 260.528 L576.787 214.389 L562.245 217.305 L562.245 209.852 L576.706 206.935 L584.889 206.935 L584.889 260.528 L598.257 260.528 L598.257 267.415 L563.419 267.415 L563.419 260.528 Z" fill="#000000" fill-rule="nonzero" fill-opacity="1" /><path clip-path="url(#clip540)" d="M632.285 212.323 Q625.965 212.323 622.765 218.561 Q619.605 224.759 619.605 237.236 Q619.605 249.672 622.765 255.91 Q625.965 262.108 632.285 262.108 Q638.645 262.108 641.804 255.91 Q645.005 249.672 645.005 237.236 Q645.005 224.759 641.804 218.561 Q638.645 212.323 632.285 212.323 M632.285 205.841 Q642.453 205.841 647.8 213.903 Q653.187 221.923 653.187 237.236 Q653.187 252.508 647.8 260.569 Q642.453 268.59 632.285 268.59 Q622.117 268.59 616.729 260.569 Q611.382 252.508 611.382 237.236 Q611.382 221.923 616.729 213.903 Q622.117 205.841 632.285 205.841 Z" fill="#000000" fill-rule="nonzero" fill-opacity="1" /><path clip-path="url(#clip540)" d="M975.452 260.528 L988.82 260.528 L988.82 214.389 L974.278 217.305 L974.278 209.852 L988.739 206.935 L996.922 206.935 L996.922 260.528 L1010.29 260.528 L1010.29 267.415 L975.452 267.415 L975.452 260.528 Z" fill="#000000" fill-rule="nonzero" fill-opacity="1" /></svg>
